HIERARCHY
ROOT Hips
{
  OFFSET -331.093 83.8371 -317.828
  CHANNELS 6 Xposition Yposition Zposition Zrotation Xrotation Yrotation
  JOINT LeftUpLeg
  {
    OFFSET 8.64259 1.95398 -2.38835
    CHANNELS 3 Zrotation Xrotation Yrotation
    JOINT LeftLeg
    {
      OFFSET 43.7702 0 0
      CHANNELS 3 Zrotation Xrotation Yrotation
      JOINT LeftFoot
      {
        OFFSET 40.6238 0 0
        CHANNELS 3 Zrotation Xrotation Yrotation
        JOINT LeftToeBase
        {
          OFFSET 12.7242 0 0
          CHANNELS 3 Zrotation Xrotation Yrotation
          End Site
          {
            OFFSET 0 0 0
          }
        }
      }
    }
  }
  JOINT RightUpLeg
  {
    OFFSET -8.2249 1.95398 -2.59336
    CHANNELS 3 Zrotation Xrotation Yrotation
    JOINT RightLeg
    {
      OFFSET 43.5653 0 0
      CHANNELS 3 Zrotation Xrotation Yrotation
      JOINT RightFoot
      {
        OFFSET 40.6238 0 0
        CHANNELS 3 Zrotation Xrotation Yrotation
        JOINT RightToeBase
        {
          OFFSET 12.7242 0 0
          CHANNELS 3 Zrotation Xrotation Yrotation
          End Site
          {
            OFFSET 0 0 0
          }
        }
      }
    }
  }
  JOINT Spine
  {
    OFFSET 0.165834 0.87714 6.61349
    CHANNELS 3 Zrotation Xrotation Yrotation
    JOINT Spine1
    {
      OFFSET 7.38963 1.71661e-005 0
      CHANNELS 3 Zrotation Xrotation Yrotation
      JOINT Spine2
      {
        OFFSET 11.9445 1.14441e-005 0
        CHANNELS 3 Zrotation Xrotation Yrotation
        JOINT Spine3
        {
          OFFSET 14.7254 4.19617e-005 0
          CHANNELS 3 Zrotation Xrotation Yrotation
          JOINT Spine4
          {
            OFFSET 10.9679 0 0
            CHANNELS 3 Zrotation Xrotation Yrotation
            JOINT RightShoulder
            {
              OFFSET 2.46616 -1.6653 3.69651
              CHANNELS 3 Zrotation Xrotation Yrotation
              JOINT RightArm
              {
                OFFSET 13.0012 0 0
                CHANNELS 3 Zrotation Xrotation Yrotation
                JOINT RightForeArm
                {
                  OFFSET 28.7848 1.62311e-005 0
                  CHANNELS 3 Zrotation Xrotation Yrotation
                  JOINT RightHand
                  {
                    OFFSET 26.5688 1.62095e-005 0
                    CHANNELS 3 Zrotation Xrotation Yrotation
                    End Site
                    {
                      OFFSET 0 0 0
                    }
                  }
                }
              }
            }
            JOINT LeftShoulder
            {
              OFFSET 2.38034 -1.29275 -3.7523
              CHANNELS 3 Zrotation Xrotation Yrotation
              JOINT LeftArm
              {
                OFFSET 16.3182 6.07031e-005 0
                CHANNELS 3 Zrotation Xrotation Yrotation
                JOINT LeftForeArm
                {
                  OFFSET 27.0901 0 0
                  CHANNELS 3 Zrotation Xrotation Yrotation
                  JOINT LeftHand
                  {
                    OFFSET 24.5451 1.51738e-005 0
                    CHANNELS 3 Zrotation Xrotation Yrotation
                    End Site
                    {
                      OFFSET 0 0 0
                    }
                  }
                }
              }
            }
            JOINT Neck
            {
              OFFSET 5.0226 -0.0266342 0
              CHANNELS 3 Zrotation Xrotation Yrotation
              JOINT Head
              {
                OFFSET 6.69364 2.86102e-005 0
                CHANNELS 3 Zrotation Xrotation Yrotation
                End Site
                {
                  OFFSET 0 0 0
                }
              }
            }
          }
        }
      }
    }
  }
}
MOTION
Frames:	17
Frame Time:	0.0416667
-25.3569 76.8028 9.0163 -4.68699 -67.1741 -3.4491 -149.587 78.3451 87.8303 -40.9931 6.839 -12.8513 54.0698 -5.70831 -3.06749 17.1358 -7.7246 11.8196 168.827 70.7532 92.4499 -81.0148 -2.3305 0.237037 82.9658 -11.3629 -5.33392 43.8433 -0.875165 -2.34629 0.247367 13.0978 -90.0155 0.678258 0.487561 -0.0101818 -10.9926 0.486653 -0.0316278 -33.5284 0.468085 0.13682 -13.5157 0.468081 0.13683 90.2986 -21.2861 -109.566 19.66 17.9746 -61.7575 14.155 38.8103 -38.1778 -9.86601 0.0834109 -4.85882 -105.644 -42.1316 52.8054 -1.53164 -19.5178 -73.0791 -5.47194 -32.0258 -12.6029 17.0327 -0.415184 -6.30754 -1.65546 4.37454 14.3429 38.6234 3.16516 2.76189 
-18.8558 79.1101 14.7708 -9.01116 -62.7232 -5.01166 -126.79 81.8509 65.4063 -49.8094 6.45025 -13.6555 57.174 -2.40794 2.25203 30.0252 4.65153 14.3667 176.555 67.4333 85.8401 -74.2478 -2.34767 -0.929181 79.9533 -10.137 -5.10095 49.7029 -2.05264 -5.40849 0.351685 12.7479 -89.9426 1.37748 0.723856 0.134144 -10.2933 0.729064 0.102129 -32.8297 0.650078 0.345489 -12.8171 0.650075 0.34548 89.4636 -24.7865 -109.688 22.2072 19.5529 -59.9442 13.5636 39.7955 -39.3175 -9.15697 0.0952159 -4.64342 -105.436 -41.8062 52.9527 -12.209 -16.9668 -73.2625 -3.30432 -19.6066 -19.5605 15.2157 0.159464 -2.75397 -0.308693 5.48998 15.0802 39.0927 3.84395 2.44995 
-12.417 80.7904 21.1539 -10.0226 -58.4033 -4.7272 -97.3536 81.3714 34.5379 -57.6286 5.19176 -12.8837 62.0275 0.288833 1.92964 31.3158 5.89877 14.3613 -176.64 63.415 79.1043 -67.4075 -2.53169 -2.6872 76.8412 -8.74798 -4.68469 53.5807 -3.89665 -9.89714 0.285205 12.2855 -89.5809 2.29895 0.732373 0.832237 -9.37206 0.768289 0.799187 -31.9058 0.448405 1.01385 -11.8931 0.44841 1.01384 87.8263 -28.9807 -111.079 21.4065 22.0179 -54.4348 16.2839 39.7907 -42.892 -8.6663 0.316752 -6.93583 -104.781 -41.2297 53.6525 -4.87911 -12.8971 -71.0873 -7.56282 -21.379 -21.4486 18.9983 -0.0123293 -3.98936 0.0622587 6.42308 12.2456 41.0748 5.54796 3.51175 
-5.6978 82.5694 28.0996 -9.86065 -56.2203 -3.02839 -102.277 79.5201 36.6495 -60.833 8.59431 -12.7017 63.7324 3.49078 6.11235 36.335 10.1997 12.8073 -172.497 56.9117 75.1753 -60.2677 -2.53998 -5.18044 70.6763 -5.68349 -3.47573 54.435 -5.09044 -12.9348 0.340284 12.004 -89.5052 2.86065 0.874392 0.976968 -8.81035 0.916545 0.937539 -31.3436 0.540368 1.19457 -11.3309 0.54037 1.19457 87.62 -31.2159 -110.48 24.2913 25.6969 -46.713 19.9419 36.8333 -51.2696 -7.65747 0.366588 -7.33618 -104.282 -41.4011 54.4988 -4.9761 -6.5054 -70.2239 -10.0325 -17.832 -29.0742 23.5793 0.358676 -2.43168 1.47344 7.49032 12.613 40.4045 7.00691 5.24353 
1.3084 84.3348 34.9169 -11.7775 -56.6789 -1.14317 -120.247 77.1644 53.0419 -64.0195 7.94507 -11.2474 68.1635 5.95139 4.51262 38.2274 11.1702 10.7486 -169.167 50.0457 74.8742 -54.5106 -3.42105 -7.8863 58.1088 -0.074972 -0.150639 51.4201 -5.39183 -15.0284 0.439834 11.6798 -89.6388 3.5098 1.02299 0.7084 -8.1609 1.05318 0.662694 -30.6965 0.762796 0.983102 -10.6838 0.762802 0.98309 86.8232 -34.2971 -110.663 18.1598 25.7702 -35.2694 27.0144 37.7636 -56.6185 -4.59139 0.512693 -9.60138 -102.471 -40.7867 56.9831 -8.39085 1.98512 -64.6011 -9.18679 -11.6806 -40.5492 25.3683 0.699252 -1.12723 0.224421 8.82497 13.066 39.793 8.62323 6.01238 
8.07154 85.1703 41.7907 -11.228 -57.498 3.39534 -134.19 74.4275 64.3704 -66.3541 11.038 -9.31649 68.3723 7.99949 7.63468 42.5771 14.3124 8.71889 -164.305 46.7007 74.8455 -56.1849 -6.77112 -10.3381 49.2065 4.32346 3.34668 25.8428 -1.80557 -19.8906 0.362218 11.2185 -89.9575 4.43644 0.741089 0.0763956 -7.23428 0.743737 0.0436909 -29.7709 0.683868 0.2956 -9.75827 0.683866 0.295601 87.1269 -35.8843 -109.469 13.717 24.8938 -21.89 34.4733 35.1196 -64.1219 -2.28934 0.525439 -9.95599 -100.475 -39.8488 59.6737 -9.17009 12.5885 -57.0324 -7.29806 -8.57448 -55.1018 28.2441 2.36042 4.56705 -0.646853 10.3353 12.655 39.9621 9.65681 4.44202 
14.5508 85.633 49.1735 -7.62063 -58.7039 8.95292 -145.967 68.8484 72.7406 -67.2379 13.299 -7.77768 68.3343 8.67819 8.56049 45.8789 17.0952 8.20007 -161.284 46.5272 75.2625 -63.9968 -13.8805 -11.1554 47.8206 6.13681 4.62841 22.0518 -0.307777 -7.73134 0.0515983 10.8029 -90.1791 5.26816 0.0289302 -0.352356 -6.40283 0.0133927 -0.35329 -28.9377 0.13349 -0.327374 -8.92501 0.133493 -0.327376 87.8256 -38.3527 -107.312 8.37454 23.7667 -9.40016 39.6644 31.9 -69.8651 2.65503 0.462985 -12.0398 -98.5054 -38.3777 62.1788 -5.17623 24.9647 -51.5904 -3.75319 -9.25446 -68.8769 30.8886 3.11546 6.33936 -0.22975 12.5446 8.64611 37.1787 13.0487 6.67112 
21.0665 86.136 56.5083 -4.45459 -60.2089 13.5883 -153.935 61.02 78.3119 -65.8139 12.2418 -7.16973 69.2021 7.90936 5.85786 49.4622 20.2965 7.96166 -163.089 49.5425 78.6179 -69.497 -12.3639 -8.7958 50.9984 4.68332 3.17855 27.5246 -0.731215 -7.1499 -0.307676 10.4594 -90.375 5.95163 -0.772152 -0.714868 -5.71927 -0.802861 -0.680184 -28.2537 -0.52162 -0.913867 -8.24105 -0.521623 -0.91387 89.6196 -36.7889 -104.689 7.22631 22.4805 0.664699 42.8277 28.1049 -74.6178 6.87438 0.293499 -13.8323 -96.7002 -36.7372 64.4517 -0.337409 37.9865 -48.0213 -0.716029 -13.6034 -82.4403 28.5489 3.62474 9.02473 0.166593 14.0184 6.61942 33.5766 14.6977 7.06156 
28.218 87.5979 63.8181 -2.27708 -61.5737 17.3384 -160.175 51.2269 82.6654 -59.3973 11.2451 -7.40856 67.3682 5.25174 2.82829 49.3737 21.3563 9.96241 -168.361 53.8588 84.7247 -71.3216 -12.106 -5.96091 55.042 3.00641 1.68716 31.0678 -1.37898 -9.519 -0.701896 10.1936 -90.5645 6.47859 -1.64176 -1.05128 -5.1917 -1.68643 -0.977994 -27.7288 -1.24994 -1.49609 -7.71615 -1.24994 -1.4961 91.7697 -34.202 -101.562 8.13148 20.8061 6.5216 43.0947 23.6859 -77.6941 10.2744 0.333065 -11.1593 -95.8929 -35.8422 65.4379 1.95375 48.9729 -43.3091 -1.68649 -18.1111 -93.869 24.1161 3.05177 8.92638 -0.139586 15.9537 6.02886 30.689 16.673 7.5919 
35.971 89.2251 71.7515 -0.785667 -64.7872 18.6219 -164.946 37.3314 84.7241 -47.875 12.7264 -7.95829 61.0777 0.446933 1.56127 49.4076 22.7499 12.2439 -173.959 55.8464 91.822 -70.2815 -15.2456 -3.91535 56.6207 2.75689 1.4457 37.426 -2.14838 -10.1746 -1.02829 10.1845 -90.5067 6.49471 -2.26924 -0.915173 -5.17451 -2.30731 -0.814371 -27.7189 -1.88929 -1.55502 -7.70626 -1.8893 -1.555 92.4944 -33.2295 -100.484 7.10046 17.5739 11.0911 44.2709 21.3208 -79.5066 15.5693 0.160192 -11.6156 -95.4232 -35.3754 66.0461 7.22034 57.0811 -43.4638 -6.70196 -21.0769 -100.772 20.1681 2.21962 7.18447 -1.77124 17.3941 5.07359 29.197 18.733 9.55645 
43.4565 90.5936 79.6185 5.37218 -66.7822 22.3682 -169.848 23.5938 83.3791 -33.5737 12.7962 -6.4699 49.4602 -9.24118 -7.93907 35.1726 8.03211 9.78178 179.507 57.3636 97.9003 -66.9523 -16.3956 -1.47595 60.071 1.33168 0.488539 42.3711 -3.22402 -12.3183 -1.48716 10.1788 -90.3747 6.50744 -3.1298 -0.623623 -5.15983 -3.1542 -0.485147 -27.7192 -2.79759 -1.53607 -7.70653 -2.79758 -1.53607 92.7724 -31.9416 -100.32 8.10659 14.2079 15.8137 44.1189 17.7619 -82.0609 17.4411 0.132094 -11.3073 -95.5065 -36.224 66.2512 15.6064 61.3902 -47.598 -11.4403 -22.2698 -105.211 10.6538 0.950224 4.5658 -3.61927 18.1809 6.6387 28.7144 19.378 9.50656 
50.6952 92.1781 87.1642 9.95502 -67.2968 25.3179 -173.495 14.9997 82.2447 -23.8766 18.0482 -4.6643 38.8648 -14.9155 -12.5735 23.5737 -1.73795 13.1552 172.95 57.1007 104.069 -56.919 -18.2099 1.82083 59.9435 1.48091 0.804969 49.0484 -4.8505 -14.6567 -1.86126 10.0155 -90.2458 6.83753 -3.82257 -0.328219 -4.82781 -3.8333 -0.159422 -27.4029 -3.54699 -1.4633 -7.39027 -3.54699 -1.46329 92.5936 -32.8897 -100.393 9.14357 10.6632 19.292 44.8762 14.2432 -84.5919 21.0307 0.146864 -10.6712 -95.4693 -36.6844 66.5001 14.3439 63.1603 -44.1727 -14.9453 -21.8536 -106.02 -3.37678 -0.107989 -0.0285288 -6.09703 18.7542 6.53124 28.681 20.3958 10.5707 
57.6673 93.5033 94.8598 13.4092 -67.3452 29.6103 -172.986 15.8095 83.9156 -34.1474 13.4617 -3.85649 46.2555 -10.3125 -8.41464 21.6113 -2.91362 17.3341 170.182 54.0158 108.674 -43.3979 -17.2558 5.22162 57.2386 2.5956 1.88594 53.3349 -3.95487 -10.122 -2.09339 9.91665 -90.3539 7.03177 -4.33272 -0.509604 -4.63198 -4.35094 -0.318062 -27.2173 -3.97896 -1.79018 -7.20462 -3.97896 -1.79016 92.2627 -35.114 -100.389 10.0981 5.27854 20.953 45.2676 11.8009 -87.1254 23.2914 0.280296 -9.77001 -95.6058 -36.9782 66.388 5.91911 62.9456 -34.314 -14.5405 -21.1603 -104.497 -14.1061 -0.110064 -3.99431 -6.98178 19.7267 5.67526 27.9277 21.7039 11.737 
63.8645 94.1075 102.469 17.7425 -67.4522 35.4878 -171.303 22.1115 87.7462 -51.4775 12.3632 -2.53606 53.234 -5.6798 -2.5474 29.2663 5.5898 20.1224 172.694 50.0683 110.288 -34.606 -12.7959 5.09961 54.5682 3.62732 2.61447 51.1291 -3.41108 -9.27607 -2.15533 9.97518 -90.4912 6.90806 -4.51506 -0.779451 -4.75516 -4.54498 -0.579574 -27.3421 -4.07177 -2.10241 -7.3294 -4.07177 -2.10243 92.0051 -36.4763 -100.485 13.8043 1.20041 21.4201 47.4753 12.9839 -87.3366 23.8942 0.38627 -9.48475 -94.9803 -37.7431 67.7354 1.48218 58.7686 -28.2827 -17.0251 -19.707 -104.191 -9.24882 0.115131 -7.79209 -6.08675 20.094 4.85263 27.1807 22.0055 11.713 
70.3902 94.2139 109.796 26.4819 -68.1085 42.9007 -170.023 28.3159 89.7812 -64.6823 10.9719 -1.10648 59.1537 -1.18562 1.46787 36.0903 13.0985 20.464 176.294 44.8214 107.41 -36.1222 -5.71646 2.63403 58.1171 1.50548 0.99044 36.8109 -0.760872 -3.53247 -2.07457 10.0817 -90.3528 6.70058 -4.29427 -0.527304 -4.96329 -4.31331 -0.337453 -27.5475 -3.93698 -1.79545 -7.53483 -3.93698 -1.79544 91.1785 -40.3572 -100.9 15.0636 -1.86826 22.7879 49.2096 15.7262 -84.9151 24.5469 0.443107 -9.42281 -95.64 -39.5837 67.3468 -2.75102 51.6301 -22.2627 -15.8563 -17.8804 -102.258 -6.78558 -0.0586761 -4.69288 -7.14196 18.5228 4.12953 28.302 20.3579 10.2446 
77.3272 93.7061 116.74 39.865 -66.2634 52.6236 -169.846 36.2975 89.3805 -71.8146 4.93551 0.141466 62.466 1.48608 2.56272 39.2963 16.4898 20.1891 176.96 36.7551 101.93 -39.8637 -2.04197 0.744901 69.7202 -4.17996 -2.38016 37.7096 -0.831413 -3.37832 -1.97992 10.112 -90.2793 6.6429 -4.0737 -0.395079 -5.02167 -4.08713 -0.215099 -27.6019 -3.76637 -1.60281 -7.58923 -3.76637 -1.60282 90.6263 -42.6636 -101.222 16.0617 -1.94041 26.0774 50.7965 16.8369 -84.9955 24.6347 0.551357 -9.07635 -97.4083 -41.7219 65.3236 -3.61248 43.7876 -20.2567 -12.3765 -16.4429 -98.7449 -0.836244 -0.0826421 -2.98463 -7.70533 15.9957 3.98084 28.4164 17.9667 10.2165 
83.7923 93.2394 123.319 41.1831 -64.1962 54.3216 -169.395 49.0055 92.8605 -72.2101 -0.363137 0.336762 65.4677 2.63458 0.893662 38.9596 16.1178 20.1706 176.696 30.444 100.131 -37.6202 0.245633 -0.235197 74.0148 -5.96113 -3.10051 41.2367 -1.09103 -3.8152 -1.4248 9.76065 -90.4843 7.34142 -3.05443 -0.808021 -4.32611 -3.08702 -0.672683 -26.8824 -2.6703 -1.68916 -6.86975 -2.6703 -1.68915 91.2998 -41.7305 -100.333 19.9916 -1.4066 27.4881 50.6254 18.163 -83.9631 23.4701 0.42273 -9.75915 -96.2907 -40.5108 66.6414 -9.45874 35.6619 -18.925 -6.65033 -14.1927 -94.4438 0.814713 -0.0591693 -3.22482 -7.18816 13.7323 2.6981 26.4277 15.7947 10.6083 
